<svg width="250" height="250"
  xmlns="http://www.w3.org/2000/svg"
  xmlns:xlink="http://www.w3.org/1999/xlink"
  viewBox="0 -35 250 250"
>
  <defs>
    <mask id="pips_mask" fill="#fff">
      <path d="M105.529 31.882C126.793 21.678 169.664-5.467 171.7.978c3.366 9.229 3.225 15.2-1.673 23.957-4.213 6.806-44.192 6.032-64.498 6.947ZM82.48 42.74l-.006.013.463.462c16.027 15.643 59.47 28.665 50.92 40.06-18.503 18.972-69.567 19.676-84.563 4.806-7.81-7.71 23.895-24.852 33.186-45.341Zm-11.499.221-.307.535c-10.184 17.669-25.626 37.3-32.95 35.728C20.22 74.811 5.798 66.054.064 52.08c-2.036-9.551 45.491 1.015 70.887-9.119h.03Zm93.836-4.604c4.998 7.329-.675 18.478-13.626 30.965-4.948 6.668-42.769-12.775-57.743-28.48l-.446-.475.01-.06.747-.086c6.95-.807 15.144-1.941 23.463-2.979l1.784-.22c20.829-2.555 41.935-4.316 45.81 1.335Z" />
    </mask>
  </defs>
  <g fill-rule="evenodd">
    <g fill-rule="nonzero">
      <path d="M19.55 56.25 13.45 66.856 7.31 79.554l1.025 39.52 21.834 29.589 20.535 15.774 46.429 13.956c56.656-7.776 109.826-20.086 118.995-55.36l-11.829 6.876-48.193 11.624-44.645-11.987-25.29-12.139-29.22-21.45L31.087 73.56" fill="#E4E4E3"/>
      <path fill="#FFF" d="m50.272 64.323 74.881-8.438 69.449-23.436L240.153 0l3.903 12.245 1.468 4.518 3.252 36.463-4.72 22.587-14.554 30.711-24.983 25.679-35.122 14.047-55.69-4.002-35.916-19.787-39.467-36.239-8.831-12.44-10.138-16.887z"/>
      <path d="M240.323 0c-18.189 27.136-46.885 41.539-91.385 57.53-41.822 14.402-90.207 20.864-129.583-.945C96.175 68.163 187.267 37.99 240.323 0Z" fill="#5A5A5A"/>
      <g opacity=".5" fill="#58595B">
        <path d="M66.039 147.058a4.705 4.705 0 0 1 6.269 1.96 4.58 4.58 0 0 1-1.981 6.154 4.604 4.604 0 0 1-6.183-1.933 4.58 4.58 0 0 1 1.895-6.18ZM39.14 129.46a5.486 5.486 0 0 1 7.292 2.253 5.374 5.374 0 0 1-.623 5.95 5.406 5.406 0 0 1-5.75 1.704 5.387 5.387 0 0 1-3.777-4.647 5.381 5.381 0 0 1 2.858-5.26ZM50.442 144.3a3.35 3.35 0 0 1 3.342.117 3.333 3.333 0 0 1-.202 5.773 3.35 3.35 0 0 1-3.342-.117 3.333 3.333 0 0 1 .202-5.773ZM62.474 138.552a3.295 3.295 0 0 1 4.405 1.455 3.205 3.205 0 0 1-1.387 4.435 3.268 3.268 0 0 1-4.446-1.384 3.36 3.36 0 0 1 1.387-4.506h.04ZM79.529 156.736a3.38 3.38 0 0 1 4.567 1.384 3.246 3.246 0 0 1-1.387 4.435 3.309 3.309 0 0 1-4.517-1.384 3.256 3.256 0 0 1 1.387-4.435h-.05ZM95.935 151.574a4.34 4.34 0 0 1 5.834 1.818 4.42 4.42 0 0 1-1.823 5.89 4.368 4.368 0 0 1-5.89-1.834 4.346 4.346 0 0 1 1.839-5.874h.04ZM80.622 144.593a3.35 3.35 0 0 1 3.342.117 3.333 3.333 0 0 1-.202 5.773 3.348 3.348 0 0 1-4.522-1.38 3.331 3.331 0 0 1 1.382-4.51ZM116.869 148.594a3.377 3.377 0 0 1 4.517 1.454 3.266 3.266 0 0 1-1.388 4.435 3.377 3.377 0 0 1-4.517-1.384 3.42 3.42 0 0 1 1.388-4.505Z"/>
      </g>
      <path d="M27.42 71.338c42.752 52.167 92.656 82.114 152.399 65.649 47.732-16.749 74.942-63.859 62.992-128.951 21.225 46.746-6.318 122.377-59.35 138.822-56.253 17.456-131.396-21.583-156.042-75.52" fill="#5A5A5A"/>
      <path d="M15.912 62.679c-18.021 25.51-20.964 43.828-7.656 66.49 7.403 12.61 19.053 24.507 39.704 36.324 13.147 7.524 53.336 18.87 86.972 12.77 29.217-5.296 52.73-17.354 71.52-36.414-25.425 16.592-51.94 24.708-80.247 27.246-25.566 2.287-57.32-1.766-74.2-9.44-18.456-8.397-30.339-26.173-35.496-36.997-7.868-16.542-12.844-35.622-.587-59.97" fill="#5A5A5A"/>
    </g>
    <g transform="translate(60 29.834)">
      <path fill="#FFCE00" mask="url(#pips_mask)" d="m83.778 38.684-12.797 62.019-12.903-1.732-15.972-10.225z"/>
      <path fill="#9400D6" mask="url(#pips_mask)" d="m78.453 38.684 40.143 56.842 26.377-16.213z"/>
      <path fill="#30C500" mask="url(#pips_mask)" d="M83.778 34.61 70.981 98.971l26.399 1.732z"/>
      <path fill="#0083FF" mask="url(#pips_mask)" d="m80.468 38.809 45.64 56.545-28.728 5.349z"/>
      <path fill="#000" mask="url(#pips_mask)" d="m85.596 38.684 81.023 19.882-21.646 20.747z"/>
      <path fill="#854122" mask="url(#pips_mask)" d="m85.596 38.684 81.023 19.882 10.236-25.789-46.866.908z"/>
      <path fill="#FF9EB1" mask="url(#pips_mask)" d="m100.626 32.777 79.892-16.836-3.663-23.126z"/>
      <path fill="#00CBF0" mask="url(#pips_mask)" d="m100.626 32.777 79.892-19.981-3.663 19.981z"/>
      <path fill="#FF7D00" mask="url(#pips_mask)" d="M75.758 40.728 12.667 74.93l29.439 13.816z"/>
      <path fill="#DB0000" mask="url(#pips_mask)" d="M75.758 40.728 12.667 74.93l-25.629-25.803z"/>
    </g>
  </g>
</svg>
